<svg width="1280" height="448" viewBox="0 0 1280 448" fill="none" xmlns="http://www.w3.org/2000/svg">
<g filter="url(#filter0_d_842_38)">
<path d="M693 32C693 20.9543 701.954 12 713 12H1283V372H713C701.954 372 693 363.046 693 352V32Z" fill="#001A49"/>
</g>
<path fill-rule="evenodd" clip-rule="evenodd" d="M988 227C1007.33 227 1023 211.33 1023 192C1023 172.67 1007.33 157 988 157C968.67 157 953 172.67 953 192C953 211.33 968.67 227 988 227Z" fill="white"/>
<path fill-rule="evenodd" clip-rule="evenodd" d="M997.917 192L983.917 203.083V180.917L997.917 192Z" fill="#001A49"/>
<path d="M4.32 70V27.7H13.68V44.68H33.06V27.7H42.48V70H33.06V52.42H13.68V70H4.32ZM61.7778 70.66C59.1378 70.66 56.8178 70.02 54.8178 68.74C52.8178 67.46 51.2578 65.64 50.1378 63.28C49.0178 60.92 48.4578 58.08 48.4578 54.76C48.4578 51.48 49.0178 48.66 50.1378 46.3C51.2578 43.94 52.8178 42.14 54.8178 40.9C56.8178 39.62 59.1378 38.98 61.7778 38.98C64.2178 38.98 66.3978 39.58 68.3178 40.78C70.2778 41.94 71.5578 43.52 72.1578 45.52H71.4978L72.2178 39.58H80.9178C80.7978 40.9 80.6778 42.24 80.5578 43.6C80.4778 44.92 80.4378 46.22 80.4378 47.5V70H71.4378L71.3778 64.3H72.0978C71.4578 66.22 70.1778 67.76 68.2578 68.92C66.3378 70.08 64.1778 70.66 61.7778 70.66ZM64.5378 63.82C66.6178 63.82 68.2978 63.08 69.5778 61.6C70.8578 60.12 71.4978 57.84 71.4978 54.76C71.4978 51.68 70.8578 49.42 69.5778 47.98C68.2978 46.54 66.6178 45.82 64.5378 45.82C62.4578 45.82 60.7778 46.54 59.4978 47.98C58.2178 49.42 57.5778 51.68 57.5778 54.76C57.5778 57.84 58.1978 60.12 59.4378 61.6C60.7178 63.08 62.4178 63.82 64.5378 63.82ZM106.705 70V59.68C105.625 60.12 104.525 60.46 103.405 60.7C102.285 60.9 101.145 61 99.9855 61C95.4255 61 92.0055 59.9 89.7255 57.7C87.4855 55.5 86.3655 52.26 86.3655 47.98V39.58H95.3655V47.14C95.3655 49.46 95.8455 51.16 96.8055 52.24C97.8055 53.28 99.4255 53.8 101.665 53.8C102.625 53.8 103.485 53.7 104.245 53.5C105.045 53.3 105.785 53 106.465 52.6V39.58H115.465V70H106.705ZM122.366 70V39.58H131.306V51.04H143.306V39.58H152.246V70H143.306V57.94H131.306V70H122.366ZM159.159 70V39.58H167.319V60.94H165.339L181.419 39.58H188.859V70H180.699V48.64H182.679L166.539 70H159.159ZM211.651 70V39.58H220.591V51.04H224.491L232.711 39.58H242.371L231.331 55.06L229.531 52.18C230.611 52.3 231.591 52.62 232.471 53.14C233.351 53.66 234.171 54.34 234.931 55.18C235.731 56.02 236.451 57.02 237.091 58.18L243.571 70H233.971L228.991 61.06C228.591 60.26 228.151 59.64 227.671 59.2C227.231 58.72 226.731 58.4 226.171 58.24C225.611 58.04 224.931 57.94 224.131 57.94H220.591V70H211.651ZM258.043 70.66C255.403 70.66 253.083 70.02 251.083 68.74C249.083 67.46 247.523 65.64 246.403 63.28C245.283 60.92 244.723 58.08 244.723 54.76C244.723 51.48 245.283 48.66 246.403 46.3C247.523 43.94 249.083 42.14 251.083 40.9C253.083 39.62 255.403 38.98 258.043 38.98C260.483 38.98 262.663 39.58 264.583 40.78C266.543 41.94 267.823 43.52 268.423 45.52H267.763L268.483 39.58H277.183C277.063 40.9 276.943 42.24 276.823 43.6C276.743 44.92 276.703 46.22 276.703 47.5V70H267.703L267.643 64.3H268.363C267.723 66.22 266.443 67.76 264.523 68.92C262.603 70.08 260.443 70.66 258.043 70.66ZM260.803 63.82C262.883 63.82 264.563 63.08 265.843 61.6C267.123 60.12 267.763 57.84 267.763 54.76C267.763 51.68 267.123 49.42 265.843 47.98C264.563 46.54 262.883 45.82 260.803 45.82C258.723 45.82 257.043 46.54 255.763 47.98C254.483 49.42 253.843 51.68 253.843 54.76C253.843 57.84 254.463 60.12 255.703 61.6C256.983 63.08 258.683 63.82 260.803 63.82ZM284.071 82.96V47.5C284.071 46.22 284.031 44.92 283.951 43.6C283.871 42.24 283.751 40.9 283.591 39.58H292.291L293.011 45.52H292.351C292.951 43.52 294.211 41.94 296.131 40.78C298.051 39.58 300.251 38.98 302.731 38.98C305.371 38.98 307.691 39.62 309.691 40.9C311.691 42.14 313.251 43.94 314.371 46.3C315.531 48.66 316.111 51.48 316.111 54.76C316.111 58.08 315.531 60.92 314.371 63.28C313.251 65.64 311.691 67.46 309.691 68.74C307.691 70.02 305.371 70.66 302.731 70.66C300.291 70.66 298.111 70.08 296.191 68.92C294.311 67.76 293.051 66.22 292.411 64.3H293.131V82.96H284.071ZM299.971 63.82C302.091 63.82 303.791 63.08 305.071 61.6C306.351 60.12 306.991 57.84 306.991 54.76C306.991 51.68 306.351 49.42 305.071 47.98C303.791 46.54 302.091 45.82 299.971 45.82C297.891 45.82 296.191 46.54 294.871 47.98C293.591 49.42 292.951 51.68 292.951 54.76C292.951 57.84 293.591 60.12 294.871 61.6C296.191 63.08 297.891 63.82 299.971 63.82ZM321.679 70V39.58H330.619V49.36H337.939C342.099 49.36 345.219 50.22 347.299 51.94C349.379 53.66 350.419 56.16 350.419 59.44C350.419 61.56 349.919 63.42 348.919 65.02C347.919 66.58 346.479 67.8 344.599 68.68C342.759 69.56 340.539 70 337.939 70H321.679ZM330.619 64.24H336.559C338.359 64.24 339.739 63.86 340.699 63.1C341.699 62.3 342.199 61.14 342.199 59.62C342.199 58.06 341.719 56.92 340.759 56.2C339.799 55.48 338.399 55.12 336.559 55.12H330.619V64.24ZM370.613 70.66C365.333 70.66 361.213 69.24 358.253 66.4C355.293 63.56 353.813 59.7 353.813 54.82C353.813 51.66 354.433 48.9 355.673 46.54C356.953 44.18 358.713 42.34 360.953 41.02C363.233 39.66 365.893 38.98 368.933 38.98C371.933 38.98 374.433 39.62 376.433 40.9C378.473 42.18 379.993 43.98 380.993 46.3C382.033 48.58 382.553 51.24 382.553 54.28V56.38H361.253V51.88H375.953L374.933 52.72C374.933 50.2 374.413 48.3 373.373 47.02C372.373 45.7 370.913 45.04 368.993 45.04C366.873 45.04 365.233 45.82 364.073 47.38C362.953 48.94 362.393 51.18 362.393 54.1V55.06C362.393 58.02 363.113 60.22 364.553 61.66C366.033 63.1 368.153 63.82 370.913 63.82C372.553 63.82 374.093 63.62 375.533 63.22C377.013 62.78 378.413 62.1 379.733 61.18L382.253 67.18C380.733 68.3 378.973 69.16 376.973 69.76C375.013 70.36 372.893 70.66 370.613 70.66ZM388.298 82.96V47.5C388.298 46.22 388.258 44.92 388.178 43.6C388.098 42.24 387.978 40.9 387.818 39.58H396.518L397.238 45.52H396.578C397.178 43.52 398.438 41.94 400.358 40.78C402.278 39.58 404.478 38.98 406.958 38.98C409.598 38.98 411.918 39.62 413.918 40.9C415.918 42.14 417.478 43.94 418.598 46.3C419.758 48.66 420.338 51.48 420.338 54.76C420.338 58.08 419.758 60.92 418.598 63.28C417.478 65.64 415.918 67.46 413.918 68.74C411.918 70.02 409.598 70.66 406.958 70.66C404.518 70.66 402.338 70.08 400.418 68.92C398.538 67.76 397.278 66.22 396.638 64.3H397.358V82.96H388.298ZM404.198 63.82C406.318 63.82 408.018 63.08 409.298 61.6C410.578 60.12 411.218 57.84 411.218 54.76C411.218 51.68 410.578 49.42 409.298 47.98C408.018 46.54 406.318 45.82 404.198 45.82C402.118 45.82 400.418 46.54 399.098 47.98C397.818 49.42 397.178 51.68 397.178 54.76C397.178 57.84 397.818 60.12 399.098 61.6C400.418 63.08 402.118 63.82 404.198 63.82ZM425.318 83.62L423.218 76.54C425.098 76.18 426.678 75.76 427.958 75.28C429.278 74.8 430.358 74.16 431.198 73.36C432.038 72.6 432.718 71.6 433.238 70.36L434.738 66.82L434.498 70.3L421.298 39.58H430.838L439.538 61.6H437.678L446.498 39.58H455.498L441.758 71.2C440.758 73.48 439.678 75.36 438.518 76.84C437.398 78.36 436.178 79.56 434.858 80.44C433.538 81.32 432.078 82 430.478 82.48C428.918 82.96 427.198 83.34 425.318 83.62ZM474.296 70V39.58H491.396C495.356 39.58 498.216 40.3 499.976 41.74C501.776 43.14 502.676 45.08 502.676 47.56C502.676 49.44 502.036 51.02 500.756 52.3C499.516 53.58 497.856 54.4 495.776 54.76V53.86C498.456 54.06 500.456 54.84 501.776 56.2C503.136 57.56 503.816 59.32 503.816 61.48C503.816 64.08 502.776 66.16 500.696 67.72C498.656 69.24 495.736 70 491.936 70H474.296ZM482.636 64.6H490.796C492.356 64.6 493.536 64.3 494.336 63.7C495.176 63.06 495.596 62.12 495.596 60.88C495.596 59.64 495.176 58.72 494.336 58.12C493.536 57.48 492.356 57.16 490.796 57.16H482.636V64.6ZM482.636 51.82H490.136C491.536 51.82 492.596 51.52 493.316 50.92C494.076 50.32 494.456 49.46 494.456 48.34C494.456 47.22 494.076 46.38 493.316 45.82C492.596 45.22 491.536 44.92 490.136 44.92H482.636V51.82ZM4.32 138V95.7H13.68V138H4.32ZM31.0297 138V103.32H17.5897V95.7H53.8297V103.32H40.3897V138H31.0297ZM73.4991 138V107.58H103.199V138H94.2591V114.48H82.4391V138H73.4991ZM110.356 150.96V115.5C110.356 114.22 110.316 112.92 110.236 111.6C110.156 110.24 110.036 108.9 109.876 107.58H118.576L119.296 113.52H118.636C119.236 111.52 120.496 109.94 122.416 108.78C124.336 107.58 126.536 106.98 129.016 106.98C131.656 106.98 133.976 107.62 135.976 108.9C137.976 110.14 139.536 111.94 140.656 114.3C141.816 116.66 142.396 119.48 142.396 122.76C142.396 126.08 141.816 128.92 140.656 131.28C139.536 133.64 137.976 135.46 135.976 136.74C133.976 138.02 131.656 138.66 129.016 138.66C126.576 138.66 124.396 138.08 122.476 136.92C120.596 135.76 119.336 134.22 118.696 132.3H119.416V150.96H110.356ZM126.256 131.82C128.376 131.82 130.076 131.08 131.356 129.6C132.636 128.12 133.276 125.84 133.276 122.76C133.276 119.68 132.636 117.42 131.356 115.98C130.076 114.54 128.376 113.82 126.256 113.82C124.176 113.82 122.476 114.54 121.156 115.98C119.876 117.42 119.236 119.68 119.236 122.76C119.236 125.84 119.876 128.12 121.156 129.6C122.476 131.08 124.176 131.82 126.256 131.82ZM145.324 138L149.884 130.2C150.684 128.84 151.664 127.76 152.824 126.96C154.024 126.12 155.284 125.7 156.604 125.7H158.164V126.42C154.484 126.42 151.664 125.64 149.704 124.08C147.784 122.48 146.824 120.16 146.824 117.12C146.824 114.08 147.844 111.74 149.884 110.1C151.964 108.42 154.984 107.58 158.944 107.58H175.024V138H166.804V127.92H164.044C163.044 127.92 162.144 128.22 161.344 128.82C160.544 129.38 159.864 130.14 159.304 131.1L155.404 138H145.324ZM160.744 122.16H166.804V113.34H160.744C158.944 113.34 157.584 113.74 156.664 114.54C155.744 115.3 155.284 116.36 155.284 117.72C155.284 119.16 155.744 120.26 156.664 121.02C157.584 121.78 158.944 122.16 160.744 122.16ZM181.886 138V107.58H189.386L199.346 124.5L209.246 107.58H216.746V138H208.766V117.78H210.266L201.386 133.08H197.246L188.366 117.78H189.806V138H181.886ZM238.299 138.66C235.059 138.66 232.239 138.02 229.839 136.74C227.479 135.42 225.639 133.58 224.319 131.22C223.039 128.86 222.399 126.04 222.399 122.76C222.399 119.52 223.039 116.72 224.319 114.36C225.639 112 227.479 110.18 229.839 108.9C232.239 107.62 235.059 106.98 238.299 106.98C241.539 106.98 244.359 107.62 246.759 108.9C249.159 110.18 250.999 112 252.279 114.36C253.599 116.72 254.259 119.52 254.259 122.76C254.259 126.04 253.599 128.86 252.279 131.22C250.999 133.58 249.159 135.42 246.759 136.74C244.359 138.02 241.539 138.66 238.299 138.66ZM238.299 131.82C240.379 131.82 242.019 131.08 243.219 129.6C244.459 128.12 245.079 125.84 245.079 122.76C245.079 119.68 244.459 117.42 243.219 115.98C242.019 114.54 240.379 113.82 238.299 113.82C236.219 113.82 234.559 114.54 233.319 115.98C232.119 117.42 231.519 119.68 231.519 122.76C231.519 125.84 232.119 128.12 233.319 129.6C234.559 131.08 236.219 131.82 238.299 131.82ZM290.68 138.66C287.44 138.66 284.6 138.02 282.16 136.74C279.72 135.46 277.84 133.62 276.52 131.22C275.2 128.82 274.54 125.98 274.54 122.7C274.54 119.38 275.2 116.56 276.52 114.24C277.88 111.88 279.76 110.08 282.16 108.84C284.6 107.6 287.44 106.98 290.68 106.98C292.72 106.98 294.7 107.28 296.62 107.88C298.58 108.48 300.18 109.32 301.42 110.4L298.78 116.64C297.78 115.72 296.62 115.04 295.3 114.6C294.02 114.12 292.78 113.88 291.58 113.88C289.14 113.88 287.24 114.64 285.88 116.16C284.52 117.68 283.84 119.88 283.84 122.76C283.84 125.64 284.52 127.84 285.88 129.36C287.24 130.88 289.14 131.64 291.58 131.64C292.74 131.64 293.96 131.42 295.24 130.98C296.56 130.54 297.74 129.88 298.78 129L301.42 135.18C300.14 136.26 298.52 137.12 296.56 137.76C294.64 138.36 292.68 138.66 290.68 138.66ZM321.863 138.66C316.583 138.66 312.463 137.24 309.503 134.4C306.543 131.56 305.063 127.7 305.063 122.82C305.063 119.66 305.683 116.9 306.923 114.54C308.203 112.18 309.963 110.34 312.203 109.02C314.483 107.66 317.143 106.98 320.183 106.98C323.183 106.98 325.683 107.62 327.683 108.9C329.723 110.18 331.243 111.98 332.243 114.3C333.283 116.58 333.803 119.24 333.803 122.28V124.38H312.503V119.88H327.203L326.183 120.72C326.183 118.2 325.663 116.3 324.623 115.02C323.623 113.7 322.163 113.04 320.243 113.04C318.123 113.04 316.483 113.82 315.323 115.38C314.203 116.94 313.643 119.18 313.643 122.1V123.06C313.643 126.02 314.363 128.22 315.803 129.66C317.283 131.1 319.403 131.82 322.163 131.82C323.803 131.82 325.343 131.62 326.783 131.22C328.263 130.78 329.663 130.1 330.983 129.18L333.503 135.18C331.983 136.3 330.223 137.16 328.223 137.76C326.263 138.36 324.143 138.66 321.863 138.66ZM339.308 138V107.58H347.468V128.94H345.488L361.568 107.58H369.008V138H360.848V116.64H362.828L346.688 138H339.308ZM354.068 104.94C351.868 104.94 349.968 104.58 348.368 103.86C346.768 103.14 345.468 102.14 344.468 100.86C343.508 99.58 342.848 98.12 342.488 96.48L346.928 95.04C347.568 96.84 348.468 98.16 349.628 99C350.788 99.8 352.308 100.2 354.188 100.2C356.028 100.2 357.528 99.78 358.688 98.94C359.848 98.1 360.768 96.82 361.448 95.1L365.648 96.48C364.928 99.12 363.568 101.2 361.568 102.72C359.608 104.2 357.108 104.94 354.068 104.94ZM395.006 138V127.68C393.926 128.12 392.826 128.46 391.706 128.7C390.586 128.9 389.446 129 388.286 129C383.726 129 380.306 127.9 378.026 125.7C375.786 123.5 374.666 120.26 374.666 115.98V107.58H383.666V115.14C383.666 117.46 384.146 119.16 385.106 120.24C386.106 121.28 387.726 121.8 389.966 121.8C390.926 121.8 391.786 121.7 392.546 121.5C393.346 121.3 394.086 121 394.766 120.6V107.58H403.766V138H395.006ZM422.727 138.66C420.087 138.66 417.767 138.02 415.767 136.74C413.767 135.46 412.207 133.64 411.087 131.28C409.967 128.92 409.407 126.08 409.407 122.76C409.407 119.48 409.967 116.66 411.087 114.3C412.207 111.94 413.767 110.14 415.767 108.9C417.767 107.62 420.087 106.98 422.727 106.98C425.167 106.98 427.347 107.58 429.267 108.78C431.227 109.94 432.507 111.52 433.107 113.52H432.447L433.167 107.58H441.867C441.747 108.9 441.627 110.24 441.507 111.6C441.427 112.92 441.387 114.22 441.387 115.5V138H432.387L432.327 132.3H433.047C432.407 134.22 431.127 135.76 429.207 136.92C427.287 138.08 425.127 138.66 422.727 138.66ZM425.487 131.82C427.567 131.82 429.247 131.08 430.527 129.6C431.807 128.12 432.447 125.84 432.447 122.76C432.447 119.68 431.807 117.42 430.527 115.98C429.247 114.54 427.567 113.82 425.487 113.82C423.407 113.82 421.727 114.54 420.447 115.98C419.167 117.42 418.527 119.68 418.527 122.76C418.527 125.84 419.147 128.12 420.387 129.6C421.667 131.08 423.367 131.82 425.487 131.82ZM463.395 138.66C460.155 138.66 457.315 138.02 454.875 136.74C452.435 135.46 450.555 133.62 449.235 131.22C447.915 128.82 447.255 125.98 447.255 122.7C447.255 119.38 447.915 116.56 449.235 114.24C450.595 111.88 452.475 110.08 454.875 108.84C457.315 107.6 460.155 106.98 463.395 106.98C465.435 106.98 467.415 107.28 469.335 107.88C471.295 108.48 472.895 109.32 474.135 110.4L471.495 116.64C470.495 115.72 469.335 115.04 468.015 114.6C466.735 114.12 465.495 113.88 464.295 113.88C461.855 113.88 459.955 114.64 458.595 116.16C457.235 117.68 456.555 119.88 456.555 122.76C456.555 125.64 457.235 127.84 458.595 129.36C459.955 130.88 461.855 131.64 464.295 131.64C465.455 131.64 466.675 131.42 467.955 130.98C469.275 130.54 470.455 129.88 471.495 129L474.135 135.18C472.855 136.26 471.235 137.12 469.275 137.76C467.355 138.36 465.395 138.66 463.395 138.66ZM478.604 138V128.4H488.324V138H478.604Z" fill="#001A49"/>
<path d="M0 297C0 278.775 14.7746 264 33 264H173C191.225 264 206 278.775 206 297V300C206 318.225 191.225 333 173 333H33C14.7746 333 0 318.225 0 300V297Z" fill="url(#paint0_linear_842_38)"/>
<path d="M49.24 306.2C48.0267 306.2 46.9467 306.053 46 305.76C45.0533 305.453 44.2533 305.033 43.6 304.5L44.42 302.6C45.02 303.08 45.7 303.447 46.46 303.7C47.22 303.94 48.0867 304.06 49.06 304.06C50.2333 304.06 51.0933 303.88 51.64 303.52C52.1867 303.147 52.46 302.593 52.46 301.86C52.46 301.18 52.2333 300.68 51.78 300.36C51.3267 300.027 50.6267 299.86 49.68 299.86H46.14V297.84H49.36C50.2667 297.84 50.9467 297.68 51.4 297.36C51.8667 297.027 52.1 296.533 52.1 295.88C52.1 295.253 51.8533 294.76 51.36 294.4C50.8667 294.027 50.1067 293.84 49.08 293.84C48.2667 293.84 47.4867 293.96 46.74 294.2C45.9933 294.44 45.3267 294.793 44.74 295.26L43.92 293.36C44.5467 292.827 45.3333 292.42 46.28 292.14C47.24 291.847 48.2533 291.7 49.32 291.7C51.0667 291.7 52.38 292.053 53.26 292.76C54.1533 293.467 54.6 294.393 54.6 295.54C54.6 296.393 54.3467 297.12 53.84 297.72C53.3333 298.307 52.64 298.7 51.76 298.9V298.6C52.76 298.747 53.54 299.12 54.1 299.72C54.6733 300.32 54.96 301.107 54.96 302.08C54.96 302.907 54.7467 303.633 54.32 304.26C53.9067 304.873 53.2733 305.353 52.42 305.7C51.58 306.033 50.52 306.2 49.24 306.2ZM61.2516 306.2C60.3716 306.2 59.5982 305.993 58.9316 305.58C58.2649 305.153 57.7449 304.547 57.3716 303.76C56.9982 302.973 56.8116 302.033 56.8116 300.94C56.8116 299.847 56.9982 298.913 57.3716 298.14C57.7449 297.353 58.2649 296.753 58.9316 296.34C59.5982 295.913 60.3716 295.7 61.2516 295.7C62.1049 295.7 62.8516 295.913 63.4916 296.34C64.1449 296.753 64.5782 297.313 64.7916 298.02H64.5716L64.7916 295.9H67.1916C67.1516 296.313 67.1116 296.733 67.0716 297.16C67.0449 297.587 67.0316 298.007 67.0316 298.42V306H64.5516L64.5316 303.92H64.7716C64.5582 304.613 64.1249 305.167 63.4716 305.58C62.8182 305.993 62.0782 306.2 61.2516 306.2ZM61.9516 304.28C62.7382 304.28 63.3716 304.007 63.8516 303.46C64.3316 302.9 64.5716 302.06 64.5716 300.94C64.5716 299.82 64.3316 298.987 63.8516 298.44C63.3716 297.893 62.7382 297.62 61.9516 297.62C61.1649 297.62 60.5316 297.893 60.0516 298.44C59.5716 298.987 59.3316 299.82 59.3316 300.94C59.3316 302.06 59.5649 302.9 60.0316 303.46C60.5116 304.007 61.1516 304.28 61.9516 304.28ZM69.9473 306V295.9H79.4073V306H76.9273V297.82H72.4273V306H69.9473ZM82.252 306V295.9H84.512V303.54H83.912L89.652 295.9H91.712V306H89.452V298.34H90.072L84.312 306H82.252ZM99.2767 306.2C98.2367 306.2 97.3234 305.987 96.5367 305.56C95.7634 305.133 95.1634 304.527 94.7367 303.74C94.3101 302.94 94.0967 301.993 94.0967 300.9C94.0967 299.807 94.3101 298.873 94.7367 298.1C95.1767 297.327 95.7834 296.733 96.5567 296.32C97.3301 295.907 98.2367 295.7 99.2767 295.7C99.9434 295.7 100.59 295.807 101.217 296.02C101.857 296.22 102.377 296.513 102.777 296.9L102.017 298.64C101.657 298.307 101.25 298.06 100.797 297.9C100.357 297.727 99.9234 297.64 99.4967 297.64C98.6034 297.64 97.9034 297.92 97.3967 298.48C96.9034 299.04 96.6567 299.853 96.6567 300.92C96.6567 301.987 96.9034 302.807 97.3967 303.38C97.9034 303.953 98.6034 304.24 99.4967 304.24C99.9101 304.24 100.337 304.16 100.777 304C101.23 303.84 101.643 303.593 102.017 303.26L102.777 304.98C102.363 305.367 101.837 305.667 101.197 305.88C100.57 306.093 99.9301 306.2 99.2767 306.2ZM108.888 306.2C108.008 306.2 107.235 305.993 106.568 305.58C105.902 305.153 105.382 304.547 105.008 303.76C104.635 302.973 104.448 302.033 104.448 300.94C104.448 299.847 104.635 298.913 105.008 298.14C105.382 297.353 105.902 296.753 106.568 296.34C107.235 295.913 108.008 295.7 108.888 295.7C109.742 295.7 110.488 295.913 111.128 296.34C111.782 296.753 112.215 297.313 112.428 298.02H112.208L112.428 295.9H114.828C114.788 296.313 114.748 296.733 114.708 297.16C114.682 297.587 114.668 298.007 114.668 298.42V306H112.188L112.168 303.92H112.408C112.195 304.613 111.762 305.167 111.108 305.58C110.455 305.993 109.715 306.2 108.888 306.2ZM109.588 304.28C110.375 304.28 111.008 304.007 111.488 303.46C111.968 302.9 112.208 302.06 112.208 300.94C112.208 299.82 111.968 298.987 111.488 298.44C111.008 297.893 110.375 297.62 109.588 297.62C108.802 297.62 108.168 297.893 107.688 298.44C107.208 298.987 106.968 299.82 106.968 300.94C106.968 302.06 107.202 302.9 107.668 303.46C108.148 304.007 108.788 304.28 109.588 304.28ZM119.764 306V297.86H116.304V295.9H125.724V297.86H122.244V306H119.764ZM127.272 306V295.9H129.752V299.28H132.412C133.758 299.28 134.772 299.567 135.452 300.14C136.132 300.7 136.472 301.513 136.472 302.58C136.472 303.273 136.312 303.88 135.992 304.4C135.672 304.907 135.205 305.3 134.592 305.58C133.992 305.86 133.265 306 132.412 306H127.272ZM129.752 304.36H132.072C132.752 304.36 133.272 304.22 133.632 303.94C133.992 303.647 134.172 303.207 134.172 302.62C134.172 302.033 133.992 301.607 133.632 301.34C133.285 301.06 132.765 300.92 132.072 300.92H129.752V304.36ZM143.281 306.2C142.241 306.2 141.327 305.987 140.541 305.56C139.767 305.133 139.167 304.527 138.741 303.74C138.314 302.94 138.101 301.993 138.101 300.9C138.101 299.807 138.314 298.873 138.741 298.1C139.181 297.327 139.787 296.733 140.561 296.32C141.334 295.907 142.241 295.7 143.281 295.7C143.947 295.7 144.594 295.807 145.221 296.02C145.861 296.22 146.381 296.513 146.781 296.9L146.021 298.64C145.661 298.307 145.254 298.06 144.801 297.9C144.361 297.727 143.927 297.64 143.501 297.64C142.607 297.64 141.907 297.92 141.401 298.48C140.907 299.04 140.661 299.853 140.661 300.92C140.661 301.987 140.907 302.807 141.401 303.38C141.907 303.953 142.607 304.24 143.501 304.24C143.914 304.24 144.341 304.16 144.781 304C145.234 303.84 145.647 303.593 146.021 303.26L146.781 304.98C146.367 305.367 145.841 305.667 145.201 305.88C144.574 306.093 143.934 306.2 143.281 306.2ZM148.072 306L149.612 303.34C149.879 302.887 150.206 302.527 150.592 302.26C150.992 301.98 151.406 301.84 151.832 301.84H152.272L152.252 302.06C151.066 302.06 150.152 301.8 149.512 301.28C148.872 300.76 148.552 300 148.552 299C148.552 298.013 148.879 297.253 149.532 296.72C150.199 296.173 151.172 295.9 152.452 295.9H157.472V306H155.192V302.44H154.052C153.639 302.44 153.272 302.553 152.952 302.78C152.646 303.007 152.386 303.3 152.172 303.66L150.852 306H148.072ZM152.932 300.82H155.192V297.52H152.932C152.252 297.52 151.739 297.667 151.392 297.96C151.059 298.253 150.892 298.653 150.892 299.16C150.892 299.693 151.059 300.107 151.392 300.4C151.739 300.68 152.252 300.82 152.932 300.82Z" fill="white"/>
<path d="M7.9 192.18C6.48667 192.18 5.28667 191.887 4.3 191.3C3.31333 190.713 2.55333 189.88 2.02 188.8C1.5 187.72 1.24 186.433 1.24 184.94C1.24 183.447 1.5 182.167 2.02 181.1C2.55333 180.02 3.31333 179.187 4.3 178.6C5.28667 178.013 6.48667 177.72 7.9 177.72C8.9 177.72 9.79333 177.873 10.58 178.18C11.3667 178.487 12.0533 178.933 12.64 179.52L12.02 180.84C11.38 180.28 10.7467 179.873 10.12 179.62C9.49333 179.353 8.76 179.22 7.92 179.22C6.30667 179.22 5.08 179.72 4.24 180.72C3.4 181.72 2.98 183.127 2.98 184.94C2.98 186.753 3.4 188.167 4.24 189.18C5.08 190.18 6.30667 190.68 7.92 190.68C8.76 190.68 9.49333 190.553 10.12 190.3C10.7467 190.033 11.38 189.613 12.02 189.04L12.64 190.38C12.0533 190.953 11.3667 191.4 10.58 191.72C9.79333 192.027 8.9 192.18 7.9 192.18ZM17.4119 192V183.26H13.7719V181.96H22.6919V183.26H19.0319V192H17.4119ZM28.2734 192.18C27.3801 192.18 26.6001 191.973 25.9334 191.56C25.2668 191.133 24.7468 190.533 24.3734 189.76C24.0134 188.987 23.8334 188.06 23.8334 186.98C23.8334 185.887 24.0134 184.953 24.3734 184.18C24.7468 183.407 25.2668 182.813 25.9334 182.4C26.6001 181.987 27.3801 181.78 28.2734 181.78C29.1801 181.78 29.9601 182.013 30.6134 182.48C31.2801 182.933 31.7201 183.553 31.9334 184.34H31.6934L31.9134 181.96H33.4734C33.4334 182.347 33.3934 182.74 33.3534 183.14C33.3268 183.527 33.3134 183.907 33.3134 184.28V192H31.6934V189.64H31.9134C31.7001 190.427 31.2601 191.047 30.5934 191.5C29.9268 191.953 29.1534 192.18 28.2734 192.18ZM28.5934 190.86C29.5534 190.86 30.3134 190.533 30.8734 189.88C31.4334 189.213 31.7134 188.247 31.7134 186.98C31.7134 185.7 31.4334 184.733 30.8734 184.08C30.3134 183.413 29.5534 183.08 28.5934 183.08C27.6468 183.08 26.8868 183.413 26.3134 184.08C25.7534 184.733 25.4734 185.7 25.4734 186.98C25.4734 188.247 25.7534 189.213 26.3134 189.88C26.8868 190.533 27.6468 190.86 28.5934 190.86ZM38.7205 192V183.26H35.0805V181.96H44.0005V183.26H40.3405V192H38.7205ZM45.682 192V181.96H47.302V185.56H50.322C51.6154 185.56 52.5887 185.84 53.242 186.4C53.9087 186.947 54.242 187.727 54.242 188.74C54.242 189.42 54.0887 190.007 53.782 190.5C53.4887 190.98 53.0487 191.353 52.462 191.62C51.8887 191.873 51.1754 192 50.322 192H45.682ZM47.302 190.84H50.182C50.9954 190.84 51.6154 190.673 52.042 190.34C52.4687 189.993 52.682 189.467 52.682 188.76C52.682 188.053 52.4687 187.54 52.042 187.22C51.6287 186.887 51.0087 186.72 50.182 186.72H47.302V190.84ZM61.8734 192V181.96H66.7134C67.8734 181.96 68.7401 182.187 69.3134 182.64C69.9001 183.08 70.1934 183.733 70.1934 184.6C70.1934 185.24 69.9668 185.78 69.5134 186.22C69.0734 186.647 68.5001 186.9 67.7934 186.98V186.74C68.6201 186.767 69.2801 187.007 69.7734 187.46C70.2668 187.913 70.5134 188.5 70.5134 189.22C70.5134 190.087 70.1934 190.767 69.5534 191.26C68.9268 191.753 68.0334 192 66.8734 192H61.8734ZM63.4134 190.9H66.7934C67.5001 190.9 68.0401 190.753 68.4134 190.46C68.8001 190.153 68.9934 189.72 68.9934 189.16C68.9934 188.6 68.8001 188.173 68.4134 187.88C68.0401 187.587 67.5001 187.44 66.7934 187.44H63.4134V190.9ZM63.4134 186.34H66.6134C67.2668 186.34 67.7734 186.193 68.1334 185.9C68.4934 185.607 68.6734 185.2 68.6734 184.68C68.6734 184.16 68.4934 183.76 68.1334 183.48C67.7734 183.187 67.2668 183.04 66.6134 183.04H63.4134V186.34ZM77.2258 192.18C76.2658 192.18 75.4258 191.973 74.7058 191.56C73.9991 191.133 73.4524 190.533 73.0658 189.76C72.6791 188.973 72.4858 188.047 72.4858 186.98C72.4858 185.9 72.6791 184.973 73.0658 184.2C73.4524 183.427 73.9991 182.833 74.7058 182.42C75.4258 181.993 76.2658 181.78 77.2258 181.78C78.1991 181.78 79.0391 181.993 79.7458 182.42C80.4658 182.833 81.0191 183.427 81.4058 184.2C81.8058 184.973 82.0058 185.9 82.0058 186.98C82.0058 188.047 81.8058 188.973 81.4058 189.76C81.0191 190.533 80.4658 191.133 79.7458 191.56C79.0391 191.973 78.1991 192.18 77.2258 192.18ZM77.2258 190.86C78.1858 190.86 78.9458 190.533 79.5058 189.88C80.0658 189.213 80.3458 188.247 80.3458 186.98C80.3458 185.7 80.0591 184.733 79.4858 184.08C78.9258 183.413 78.1724 183.08 77.2258 183.08C76.2791 183.08 75.5258 183.413 74.9658 184.08C74.4058 184.733 74.1258 185.7 74.1258 186.98C74.1258 188.247 74.4058 189.213 74.9658 189.88C75.5258 190.533 76.2791 190.86 77.2258 190.86ZM88.9469 192.18C87.9602 192.18 87.1002 191.967 86.3669 191.54C85.6469 191.113 85.0869 190.507 84.6869 189.72C84.3002 188.933 84.1069 188 84.1069 186.92C84.1069 185.827 84.3069 184.9 84.7069 184.14C85.1069 183.367 85.6669 182.78 86.3869 182.38C87.1202 181.98 87.9735 181.78 88.9469 181.78C89.5869 181.78 90.2069 181.893 90.8069 182.12C91.4202 182.347 91.9269 182.667 92.3269 183.08L91.7469 184.24C91.3469 183.853 90.9069 183.567 90.4269 183.38C89.9602 183.193 89.5002 183.1 89.0469 183.1C88.0069 183.1 87.2002 183.427 86.6269 184.08C86.0535 184.733 85.7669 185.687 85.7669 186.94C85.7669 188.18 86.0535 189.14 86.6269 189.82C87.2002 190.5 88.0069 190.84 89.0469 190.84C89.4869 190.84 89.9402 190.753 90.4069 190.58C90.8869 190.407 91.3335 190.12 91.7469 189.72L92.3269 190.86C91.9135 191.287 91.4002 191.613 90.7869 191.84C90.1735 192.067 89.5602 192.18 88.9469 192.18ZM96.8845 192V183.26H93.2445V181.96H102.165V183.26H98.5045V192H96.8845ZM103.926 196.32V184.28C103.926 183.907 103.906 183.527 103.866 183.14C103.839 182.74 103.806 182.347 103.766 181.96H105.326L105.546 184.34H105.306C105.519 183.553 105.953 182.933 106.606 182.48C107.259 182.013 108.039 181.78 108.946 181.78C109.853 181.78 110.633 181.987 111.286 182.4C111.953 182.813 112.473 183.407 112.846 184.18C113.219 184.953 113.406 185.887 113.406 186.98C113.406 188.06 113.219 188.987 112.846 189.76C112.486 190.533 111.973 191.133 111.306 191.56C110.639 191.973 109.853 192.18 108.946 192.18C108.053 192.18 107.279 191.953 106.626 191.5C105.973 191.047 105.539 190.427 105.326 189.64H105.546V196.32H103.926ZM108.626 190.86C109.586 190.86 110.346 190.533 110.906 189.88C111.479 189.213 111.766 188.247 111.766 186.98C111.766 185.7 111.479 184.733 110.906 184.08C110.346 183.413 109.586 183.08 108.626 183.08C107.679 183.08 106.919 183.413 106.346 184.08C105.786 184.733 105.506 185.7 105.506 186.98C105.506 188.247 105.786 189.213 106.346 189.88C106.919 190.533 107.679 190.86 108.626 190.86ZM120.593 192.18C119.02 192.18 117.78 191.727 116.873 190.82C115.966 189.9 115.513 188.627 115.513 187C115.513 185.947 115.713 185.033 116.113 184.26C116.513 183.473 117.073 182.867 117.793 182.44C118.513 182 119.34 181.78 120.273 181.78C121.193 181.78 121.966 181.973 122.593 182.36C123.22 182.747 123.7 183.3 124.033 184.02C124.366 184.727 124.533 185.567 124.533 186.54V187.14H116.753V186.12H123.473L123.133 186.38C123.133 185.313 122.893 184.48 122.413 183.88C121.933 183.28 121.22 182.98 120.273 182.98C119.273 182.98 118.493 183.333 117.933 184.04C117.373 184.733 117.093 185.673 117.093 186.86V187.04C117.093 188.293 117.4 189.247 118.013 189.9C118.64 190.54 119.513 190.86 120.633 190.86C121.233 190.86 121.793 190.773 122.313 190.6C122.846 190.413 123.353 190.113 123.833 189.7L124.393 190.84C123.953 191.267 123.393 191.6 122.713 191.84C122.046 192.067 121.34 192.18 120.593 192.18ZM131.387 192.18C129.921 192.18 128.754 191.707 127.887 190.76C127.021 189.813 126.587 188.433 126.587 186.62V184.86C126.587 183.007 126.967 181.507 127.727 180.36C128.487 179.213 129.687 178.44 131.327 178.04L134.987 177.12L135.487 178.44L131.427 179.44C130.681 179.627 130.067 179.953 129.587 180.42C129.107 180.873 128.741 181.42 128.487 182.06C128.247 182.687 128.127 183.353 128.127 184.06V184.86H127.887C128.047 184.26 128.307 183.747 128.667 183.32C129.027 182.88 129.467 182.547 129.987 182.32C130.521 182.08 131.107 181.96 131.747 181.96C132.614 181.96 133.374 182.167 134.027 182.58C134.681 182.98 135.187 183.56 135.547 184.32C135.921 185.067 136.107 185.967 136.107 187.02C136.107 188.073 135.914 188.987 135.527 189.76C135.141 190.533 134.594 191.133 133.887 191.56C133.181 191.973 132.347 192.18 131.387 192.18ZM131.347 190.88C132.321 190.88 133.087 190.56 133.647 189.92C134.207 189.267 134.487 188.313 134.487 187.06C134.487 185.82 134.201 184.88 133.627 184.24C133.067 183.587 132.307 183.26 131.347 183.26C130.387 183.26 129.621 183.58 129.047 184.22C128.487 184.86 128.207 185.767 128.207 186.94C128.207 188.247 128.487 189.233 129.047 189.9C129.607 190.553 130.374 190.88 131.347 190.88ZM142.968 192.18C142.008 192.18 141.168 191.973 140.448 191.56C139.741 191.133 139.195 190.533 138.808 189.76C138.421 188.973 138.228 188.047 138.228 186.98C138.228 185.9 138.421 184.973 138.808 184.2C139.195 183.427 139.741 182.833 140.448 182.42C141.168 181.993 142.008 181.78 142.968 181.78C143.941 181.78 144.781 181.993 145.488 182.42C146.208 182.833 146.761 183.427 147.148 184.2C147.548 184.973 147.748 185.9 147.748 186.98C147.748 188.047 147.548 188.973 147.148 189.76C146.761 190.533 146.208 191.133 145.488 191.56C144.781 191.973 143.941 192.18 142.968 192.18ZM142.968 190.86C143.928 190.86 144.688 190.533 145.248 189.88C145.808 189.213 146.088 188.247 146.088 186.98C146.088 185.7 145.801 184.733 145.228 184.08C144.668 183.413 143.915 183.08 142.968 183.08C142.021 183.08 141.268 183.413 140.708 184.08C140.148 184.733 139.868 185.7 139.868 186.98C139.868 188.247 140.148 189.213 140.708 189.88C141.268 190.533 142.021 190.86 142.968 190.86ZM150.389 192V181.96H155.229C156.389 181.96 157.256 182.187 157.829 182.64C158.416 183.08 158.709 183.733 158.709 184.6C158.709 185.24 158.482 185.78 158.029 186.22C157.589 186.647 157.016 186.9 156.309 186.98V186.74C157.136 186.767 157.796 187.007 158.289 187.46C158.782 187.913 159.029 188.5 159.029 189.22C159.029 190.087 158.709 190.767 158.069 191.26C157.442 191.753 156.549 192 155.389 192H150.389ZM151.929 190.9H155.309C156.016 190.9 156.556 190.753 156.929 190.46C157.316 190.153 157.509 189.72 157.509 189.16C157.509 188.6 157.316 188.173 156.929 187.88C156.556 187.587 156.016 187.44 155.309 187.44H151.929V190.9ZM151.929 186.34H155.129C155.782 186.34 156.289 186.193 156.649 185.9C157.009 185.607 157.189 185.2 157.189 184.68C157.189 184.16 157.009 183.76 156.649 183.48C156.289 183.187 155.782 183.04 155.129 183.04H151.929V186.34ZM165.441 192.18C164.548 192.18 163.768 191.973 163.101 191.56C162.435 191.133 161.915 190.533 161.541 189.76C161.181 188.987 161.001 188.06 161.001 186.98C161.001 185.887 161.181 184.953 161.541 184.18C161.915 183.407 162.435 182.813 163.101 182.4C163.768 181.987 164.548 181.78 165.441 181.78C166.348 181.78 167.128 182.013 167.781 182.48C168.448 182.933 168.888 183.553 169.101 184.34H168.861L169.081 181.96H170.641C170.601 182.347 170.561 182.74 170.521 183.14C170.495 183.527 170.481 183.907 170.481 184.28V192H168.861V189.64H169.081C168.868 190.427 168.428 191.047 167.761 191.5C167.095 191.953 166.321 192.18 165.441 192.18ZM165.761 190.86C166.721 190.86 167.481 190.533 168.041 189.88C168.601 189.213 168.881 188.247 168.881 186.98C168.881 185.7 168.601 184.733 168.041 184.08C167.481 183.413 166.721 183.08 165.761 183.08C164.815 183.08 164.055 183.413 163.481 184.08C162.921 184.733 162.641 185.7 162.641 186.98C162.641 188.247 162.921 189.213 163.481 189.88C164.055 190.533 164.815 190.86 165.761 190.86ZM173.748 192V181.96H175.368V186.16H180.888V181.96H182.508V192H180.888V187.46H175.368V192H173.748ZM185.702 192V181.96H187.322V186.16H192.842V181.96H194.462V192H192.842V187.46H187.322V192H185.702ZM197.655 192V181.96H199.275V185.56H202.295C203.588 185.56 204.561 185.84 205.215 186.4C205.881 186.947 206.215 187.727 206.215 188.74C206.215 189.42 206.061 190.007 205.755 190.5C205.461 190.98 205.021 191.353 204.435 191.62C203.861 191.873 203.148 192 202.295 192H197.655ZM199.275 190.84H202.155C202.968 190.84 203.588 190.673 204.015 190.34C204.441 189.993 204.655 189.467 204.655 188.76C204.655 188.053 204.441 187.54 204.015 187.22C203.601 186.887 202.981 186.72 202.155 186.72H199.275V190.84ZM207.735 192V181.96H209.335V192H207.735ZM212.538 192V181.96H213.898L217.658 188.7L221.438 181.96H222.798V192H221.358V183.76H221.778L218.078 190.38H217.258L213.538 183.74H213.978V192H212.538ZM231.369 192V177.9H233.029V192H231.369ZM239.965 192V179.3H234.985V177.9H246.585V179.3H241.625V192H239.965ZM247.378 187.18V185.84H253.078V187.18H247.378ZM260.685 192.18C259.698 192.18 258.838 191.967 258.105 191.54C257.385 191.113 256.825 190.507 256.425 189.72C256.038 188.933 255.845 188 255.845 186.92C255.845 185.827 256.045 184.9 256.445 184.14C256.845 183.367 257.405 182.78 258.125 182.38C258.858 181.98 259.712 181.78 260.685 181.78C261.325 181.78 261.945 181.893 262.545 182.12C263.158 182.347 263.665 182.667 264.065 183.08L263.485 184.24C263.085 183.853 262.645 183.567 262.165 183.38C261.698 183.193 261.238 183.1 260.785 183.1C259.745 183.1 258.938 183.427 258.365 184.08C257.792 184.733 257.505 185.687 257.505 186.94C257.505 188.18 257.792 189.14 258.365 189.82C258.938 190.5 259.745 190.84 260.785 190.84C261.225 190.84 261.678 190.753 262.145 190.58C262.625 190.407 263.072 190.12 263.485 189.72L264.065 190.86C263.652 191.287 263.138 191.613 262.525 191.84C261.912 192.067 261.298 192.18 260.685 192.18ZM266.483 192V181.96H275.183V192H273.563V183.24H268.103V192H266.483ZM282.917 192.18C281.344 192.18 280.104 191.727 279.197 190.82C278.291 189.9 277.837 188.627 277.837 187C277.837 185.947 278.037 185.033 278.437 184.26C278.837 183.473 279.397 182.867 280.117 182.44C280.837 182 281.664 181.78 282.597 181.78C283.517 181.78 284.291 181.973 284.917 182.36C285.544 182.747 286.024 183.3 286.357 184.02C286.691 184.727 286.857 185.567 286.857 186.54V187.14H279.077V186.12H285.797L285.457 186.38C285.457 185.313 285.217 184.48 284.737 183.88C284.257 183.28 283.544 182.98 282.597 182.98C281.597 182.98 280.817 183.333 280.257 184.04C279.697 184.733 279.417 185.673 279.417 186.86V187.04C279.417 188.293 279.724 189.247 280.337 189.9C280.964 190.54 281.837 190.86 282.957 190.86C283.557 190.86 284.117 190.773 284.637 190.6C285.171 190.413 285.677 190.113 286.157 189.7L286.717 190.84C286.277 191.267 285.717 191.6 285.037 191.84C284.371 192.067 283.664 192.18 282.917 192.18ZM298.132 194.6V192H289.452V181.96H291.072V190.72H296.332V181.96H297.912V190.72H299.512V194.6H298.132ZM301.678 192V181.96H303.158V190.5H302.618L309.018 181.96H310.378V192H308.918V183.44H309.458L303.058 192H301.678ZM317.473 192.18C316.579 192.18 315.799 191.973 315.133 191.56C314.466 191.133 313.946 190.533 313.573 189.76C313.213 188.987 313.033 188.06 313.033 186.98C313.033 185.887 313.213 184.953 313.573 184.18C313.946 183.407 314.466 182.813 315.133 182.4C315.799 181.987 316.579 181.78 317.473 181.78C318.379 181.78 319.159 182.013 319.813 182.48C320.479 182.933 320.919 183.553 321.133 184.34H320.893L321.113 181.96H322.673C322.633 182.347 322.593 182.74 322.553 183.14C322.526 183.527 322.513 183.907 322.513 184.28V192H320.893V189.64H321.113C320.899 190.427 320.459 191.047 319.793 191.5C319.126 191.953 318.353 192.18 317.473 192.18ZM317.793 190.86C318.753 190.86 319.513 190.533 320.073 189.88C320.633 189.213 320.913 188.247 320.913 186.98C320.913 185.7 320.633 184.733 320.073 184.08C319.513 183.413 318.753 183.08 317.793 183.08C316.846 183.08 316.086 183.413 315.513 184.08C314.953 184.733 314.673 185.7 314.673 186.98C314.673 188.247 314.953 189.213 315.513 189.88C316.086 190.533 316.846 190.86 317.793 190.86ZM325.24 192.22L324.64 190.96C325.106 190.747 325.493 190.487 325.8 190.18C326.12 189.86 326.373 189.46 326.56 188.98C326.746 188.487 326.88 187.88 326.96 187.16C327.04 186.427 327.08 185.547 327.08 184.52V181.96H334.32V192H332.72V183.24H328.58V184.58C328.58 186.153 328.466 187.447 328.24 188.46C328.026 189.473 327.673 190.28 327.18 190.88C326.7 191.467 326.053 191.913 325.24 192.22ZM337.518 192V181.96H338.998V190.5H338.458L344.858 181.96H346.218V192H344.758V183.44H345.298L338.898 192H337.518ZM353.713 192.18C352.726 192.18 351.866 191.967 351.133 191.54C350.413 191.113 349.853 190.507 349.453 189.72C349.066 188.933 348.873 188 348.873 186.92C348.873 185.827 349.073 184.9 349.473 184.14C349.873 183.367 350.433 182.78 351.153 182.38C351.886 181.98 352.739 181.78 353.713 181.78C354.353 181.78 354.973 181.893 355.573 182.12C356.186 182.347 356.693 182.667 357.093 183.08L356.513 184.24C356.113 183.853 355.673 183.567 355.193 183.38C354.726 183.193 354.266 183.1 353.813 183.1C352.773 183.1 351.966 183.427 351.393 184.08C350.819 184.733 350.533 185.687 350.533 186.94C350.533 188.18 350.819 189.14 351.393 189.82C351.966 190.5 352.773 190.84 353.813 190.84C354.253 190.84 354.706 190.753 355.173 190.58C355.653 190.407 356.099 190.12 356.513 189.72L357.093 190.86C356.679 191.287 356.166 191.613 355.553 191.84C354.939 192.067 354.326 192.18 353.713 192.18ZM361.65 192V183.26H358.01V181.96H366.93V183.26H363.27V192H361.65ZM372.773 192.18C371.813 192.18 370.973 191.973 370.253 191.56C369.546 191.133 368.999 190.533 368.613 189.76C368.226 188.973 368.033 188.047 368.033 186.98C368.033 185.9 368.226 184.973 368.613 184.2C368.999 183.427 369.546 182.833 370.253 182.42C370.973 181.993 371.813 181.78 372.773 181.78C373.746 181.78 374.586 181.993 375.293 182.42C376.013 182.833 376.566 183.427 376.953 184.2C377.353 184.973 377.553 185.9 377.553 186.98C377.553 188.047 377.353 188.973 376.953 189.76C376.566 190.533 376.013 191.133 375.293 191.56C374.586 191.973 373.746 192.18 372.773 192.18ZM372.773 190.86C373.733 190.86 374.493 190.533 375.053 189.88C375.613 189.213 375.893 188.247 375.893 186.98C375.893 185.7 375.606 184.733 375.033 184.08C374.473 183.413 373.719 183.08 372.773 183.08C371.826 183.08 371.073 183.413 370.513 184.08C369.953 184.733 369.673 185.7 369.673 186.98C369.673 188.247 369.953 189.213 370.513 189.88C371.073 190.533 371.826 190.86 372.773 190.86ZM380.194 192V181.96H381.554L385.314 188.7L389.094 181.96H390.454V192H389.014V183.76H389.434L385.734 190.38H384.914L381.194 183.74H381.634V192H380.194ZM398.866 192V181.96H403.706C404.866 181.96 405.732 182.187 406.306 182.64C406.892 183.08 407.186 183.733 407.186 184.6C407.186 185.24 406.959 185.78 406.506 186.22C406.066 186.647 405.492 186.9 404.786 186.98V186.74C405.612 186.767 406.272 187.007 406.766 187.46C407.259 187.913 407.506 188.5 407.506 189.22C407.506 190.087 407.186 190.767 406.546 191.26C405.919 191.753 405.026 192 403.866 192H398.866ZM400.406 190.9H403.786C404.492 190.9 405.032 190.753 405.406 190.46C405.792 190.153 405.986 189.72 405.986 189.16C405.986 188.6 405.792 188.173 405.406 187.88C405.032 187.587 404.492 187.44 403.786 187.44H400.406V190.9ZM400.406 186.34H403.606C404.259 186.34 404.766 186.193 405.126 185.9C405.486 185.607 405.666 185.2 405.666 184.68C405.666 184.16 405.486 183.76 405.126 183.48C404.766 183.187 404.259 183.04 403.606 183.04H400.406V186.34ZM410.018 192V181.96H411.378L415.138 188.7L418.918 181.96H420.278V192H418.838V183.76H419.258L415.558 190.38H414.738L411.018 183.74H411.458V192H410.018ZM428.015 192.18C426.442 192.18 425.202 191.727 424.295 190.82C423.388 189.9 422.935 188.627 422.935 187C422.935 185.947 423.135 185.033 423.535 184.26C423.935 183.473 424.495 182.867 425.215 182.44C425.935 182 426.762 181.78 427.695 181.78C428.615 181.78 429.388 181.973 430.015 182.36C430.642 182.747 431.122 183.3 431.455 184.02C431.788 184.727 431.955 185.567 431.955 186.54V187.14H424.175V186.12H430.895L430.555 186.38C430.555 185.313 430.315 184.48 429.835 183.88C429.355 183.28 428.642 182.98 427.695 182.98C426.695 182.98 425.915 183.333 425.355 184.04C424.795 184.733 424.515 185.673 424.515 186.86V187.04C424.515 188.293 424.822 189.247 425.435 189.9C426.062 190.54 426.935 190.86 428.055 190.86C428.655 190.86 429.215 190.773 429.735 190.6C430.268 190.413 430.775 190.113 431.255 189.7L431.815 190.84C431.375 191.267 430.815 191.6 430.135 191.84C429.468 192.067 428.762 192.18 428.015 192.18ZM438.849 192.18C437.863 192.18 437.003 191.967 436.269 191.54C435.549 191.113 434.989 190.507 434.589 189.72C434.203 188.933 434.009 188 434.009 186.92C434.009 185.827 434.209 184.9 434.609 184.14C435.009 183.367 435.569 182.78 436.289 182.38C437.023 181.98 437.876 181.78 438.849 181.78C439.489 181.78 440.109 181.893 440.709 182.12C441.323 182.347 441.829 182.667 442.229 183.08L441.649 184.24C441.249 183.853 440.809 183.567 440.329 183.38C439.863 183.193 439.403 183.1 438.949 183.1C437.909 183.1 437.103 183.427 436.529 184.08C435.956 184.733 435.669 185.687 435.669 186.94C435.669 188.18 435.956 189.14 436.529 189.82C437.103 190.5 437.909 190.84 438.949 190.84C439.389 190.84 439.843 190.753 440.309 190.58C440.789 190.407 441.236 190.12 441.649 189.72L442.229 190.86C441.816 191.287 441.303 191.613 440.689 191.84C440.076 192.067 439.463 192.18 438.849 192.18ZM446.787 192V183.26H443.147V181.96H452.067V183.26H448.407V192H446.787ZM458.249 192.18C456.676 192.18 455.436 191.727 454.529 190.82C453.623 189.9 453.169 188.627 453.169 187C453.169 185.947 453.369 185.033 453.769 184.26C454.169 183.473 454.729 182.867 455.449 182.44C456.169 182 456.996 181.78 457.929 181.78C458.849 181.78 459.623 181.973 460.249 182.36C460.876 182.747 461.356 183.3 461.689 184.02C462.023 184.727 462.189 185.567 462.189 186.54V187.14H454.409V186.12H461.129L460.789 186.38C460.789 185.313 460.549 184.48 460.069 183.88C459.589 183.28 458.876 182.98 457.929 182.98C456.929 182.98 456.149 183.333 455.589 184.04C455.029 184.733 454.749 185.673 454.749 186.86V187.04C454.749 188.293 455.056 189.247 455.669 189.9C456.296 190.54 457.169 190.86 458.289 190.86C458.889 190.86 459.449 190.773 459.969 190.6C460.503 190.413 461.009 190.113 461.489 189.7L462.049 190.84C461.609 191.267 461.049 191.6 460.369 191.84C459.703 192.067 458.996 192.18 458.249 192.18ZM474.298 192.18C473.312 192.18 472.452 191.967 471.718 191.54C470.998 191.113 470.438 190.507 470.038 189.72C469.652 188.933 469.458 188 469.458 186.92C469.458 185.827 469.658 184.9 470.058 184.14C470.458 183.367 471.018 182.78 471.738 182.38C472.472 181.98 473.325 181.78 474.298 181.78C474.938 181.78 475.558 181.893 476.158 182.12C476.772 182.347 477.278 182.667 477.678 183.08L477.098 184.24C476.698 183.853 476.258 183.567 475.778 183.38C475.312 183.193 474.852 183.1 474.398 183.1C473.358 183.1 472.552 183.427 471.978 184.08C471.405 184.733 471.118 185.687 471.118 186.94C471.118 188.18 471.405 189.14 471.978 189.82C472.552 190.5 473.358 190.84 474.398 190.84C474.838 190.84 475.292 190.753 475.758 190.58C476.238 190.407 476.685 190.12 477.098 189.72L477.678 190.86C477.265 191.287 476.752 191.613 476.138 191.84C475.525 192.067 474.912 192.18 474.298 192.18ZM1.76 222V207.9H3.42V214.14H11.92V207.9H13.56V222H11.92V215.56H3.42V222H1.76ZM21.6725 222.18C20.5392 222.18 19.5258 222.033 18.6325 221.74C17.7392 221.447 16.9592 221.027 16.2925 220.48L16.8925 219.16C17.3592 219.507 17.8258 219.8 18.2925 220.04C18.7725 220.267 19.2858 220.44 19.8325 220.56C20.3792 220.667 20.9925 220.72 21.6725 220.72C22.8592 220.72 23.7392 220.5 24.3125 220.06C24.8858 219.62 25.1725 219.033 25.1725 218.3C25.1725 217.673 24.9725 217.193 24.5725 216.86C24.1725 216.527 23.4725 216.26 22.4725 216.06L20.3725 215.64C19.0792 215.373 18.1125 214.94 17.4725 214.34C16.8458 213.74 16.5325 212.927 16.5325 211.9C16.5325 211.06 16.7458 210.327 17.1725 209.7C17.6125 209.073 18.2258 208.587 19.0125 208.24C19.7992 207.893 20.7125 207.72 21.7525 207.72C22.7525 207.72 23.6658 207.873 24.4925 208.18C25.3192 208.473 26.0258 208.907 26.6125 209.48L26.0325 210.76C25.4058 210.2 24.7458 209.8 24.0525 209.56C23.3725 209.307 22.5992 209.18 21.7325 209.18C20.6392 209.18 19.7725 209.42 19.1325 209.9C18.5058 210.367 18.1925 211.007 18.1925 211.82C18.1925 212.473 18.3925 212.987 18.7925 213.36C19.1925 213.72 19.8525 213.993 20.7725 214.18L22.8925 214.6C24.2525 214.88 25.2525 215.3 25.8925 215.86C26.5325 216.42 26.8525 217.207 26.8525 218.22C26.8525 218.993 26.6392 219.68 26.2125 220.28C25.7992 220.88 25.2058 221.347 24.4325 221.68C23.6592 222.013 22.7392 222.18 21.6725 222.18ZM33.5734 222.18C32.5868 222.18 31.7268 221.967 30.9934 221.54C30.2734 221.113 29.7134 220.507 29.3134 219.72C28.9268 218.933 28.7334 218 28.7334 216.92C28.7334 215.827 28.9334 214.9 29.3334 214.14C29.7334 213.367 30.2934 212.78 31.0134 212.38C31.7468 211.98 32.6001 211.78 33.5734 211.78C34.2134 211.78 34.8334 211.893 35.4334 212.12C36.0468 212.347 36.5534 212.667 36.9534 213.08L36.3734 214.24C35.9734 213.853 35.5334 213.567 35.0534 213.38C34.5868 213.193 34.1268 213.1 33.6734 213.1C32.6334 213.1 31.8268 213.427 31.2534 214.08C30.6801 214.733 30.3934 215.687 30.3934 216.94C30.3934 218.18 30.6801 219.14 31.2534 219.82C31.8268 220.5 32.6334 220.84 33.6734 220.84C34.1134 220.84 34.5668 220.753 35.0334 220.58C35.5134 220.407 35.9601 220.12 36.3734 219.72L36.9534 220.86C36.5401 221.287 36.0268 221.613 35.4134 221.84C34.8001 222.067 34.1868 222.18 33.5734 222.18ZM39.2558 222V207.28H40.8758V214.18H40.6158C40.8958 213.393 41.3624 212.8 42.0158 212.4C42.6824 211.987 43.4491 211.78 44.3158 211.78C45.5158 211.78 46.4091 212.107 46.9958 212.76C47.5824 213.4 47.8758 214.373 47.8758 215.68V222H46.2558V215.78C46.2558 214.847 46.0691 214.167 45.6958 213.74C45.3358 213.313 44.7491 213.1 43.9358 213.1C43.0024 213.1 42.2558 213.387 41.6958 213.96C41.1491 214.533 40.8758 215.287 40.8758 216.22V222H39.2558ZM55.0945 222.18C54.1345 222.18 53.2945 221.973 52.5745 221.56C51.8679 221.133 51.3212 220.533 50.9345 219.76C50.5479 218.973 50.3545 218.047 50.3545 216.98C50.3545 215.9 50.5479 214.973 50.9345 214.2C51.3212 213.427 51.8679 212.833 52.5745 212.42C53.2945 211.993 54.1345 211.78 55.0945 211.78C56.0679 211.78 56.9079 211.993 57.6145 212.42C58.3345 212.833 58.8879 213.427 59.2745 214.2C59.6745 214.973 59.8745 215.9 59.8745 216.98C59.8745 218.047 59.6745 218.973 59.2745 219.76C58.8879 220.533 58.3345 221.133 57.6145 221.56C56.9079 221.973 56.0679 222.18 55.0945 222.18ZM55.0945 220.86C56.0545 220.86 56.8145 220.533 57.3745 219.88C57.9345 219.213 58.2145 218.247 58.2145 216.98C58.2145 215.7 57.9279 214.733 57.3545 214.08C56.7945 213.413 56.0412 213.08 55.0945 213.08C54.1479 213.08 53.3945 213.413 52.8345 214.08C52.2745 214.733 51.9945 215.7 51.9945 216.98C51.9945 218.247 52.2745 219.213 52.8345 219.88C53.3945 220.533 54.1479 220.86 55.0945 220.86ZM66.5203 222.18C65.5603 222.18 64.7203 221.973 64.0003 221.56C63.2936 221.133 62.747 220.533 62.3603 219.76C61.9736 218.973 61.7803 218.047 61.7803 216.98C61.7803 215.9 61.9736 214.973 62.3603 214.2C62.747 213.427 63.2936 212.833 64.0003 212.42C64.7203 211.993 65.5603 211.78 66.5203 211.78C67.4936 211.78 68.3336 211.993 69.0403 212.42C69.7603 212.833 70.3136 213.427 70.7003 214.2C71.1003 214.973 71.3003 215.9 71.3003 216.98C71.3003 218.047 71.1003 218.973 70.7003 219.76C70.3136 220.533 69.7603 221.133 69.0403 221.56C68.3336 221.973 67.4936 222.18 66.5203 222.18ZM66.5203 220.86C67.4803 220.86 68.2403 220.533 68.8003 219.88C69.3603 219.213 69.6403 218.247 69.6403 216.98C69.6403 215.7 69.3536 214.733 68.7803 214.08C68.2203 213.413 67.467 213.08 66.5203 213.08C65.5736 213.08 64.8203 213.413 64.2603 214.08C63.7003 214.733 63.4203 215.7 63.4203 216.98C63.4203 218.247 63.7003 219.213 64.2603 219.88C64.8203 220.533 65.5736 220.86 66.5203 220.86ZM73.8261 222V207.28H75.4461V222H73.8261ZM78.2717 222V219.96H80.3117V222H78.2717Z" fill="#4F596A"/>
<defs>
<filter id="filter0_d_842_38" x="649" y="0" width="678" height="448" filterUnits="userSpaceOnUse" color-interpolation-filters="sRGB">
<feFlood flood-opacity="0" result="BackgroundImageFix"/>
<feColorMatrix in="SourceAlpha" type="matrix" values="0 0 0 0 0 0 0 0 0 0 0 0 0 0 0 0 0 0 127 0" result="hardAlpha"/>
<feOffset dy="32"/>
<feGaussianBlur stdDeviation="22"/>
<feColorMatrix type="matrix" values="0 0 0 0 0.507545 0 0 0 0 0.541783 0 0 0 0 0.54863 0 0 0 1 0"/>
<feBlend mode="normal" in2="BackgroundImageFix" result="effect1_dropShadow_842_38"/>
<feBlend mode="normal" in="SourceGraphic" in2="effect1_dropShadow_842_38" result="shape"/>
</filter>
<linearGradient id="paint0_linear_842_38" x1="116.156" y1="349.312" x2="143.646" y2="264.643" gradientUnits="userSpaceOnUse">
<stop stop-color="#8FBBE6"/>
<stop offset="1" stop-color="#3D75BF"/>
</linearGradient>
</defs>
</svg>
